<?xml version="1.0" standalone="no"?>
<!DOCTYPE svg PUBLIC "-//W3C//DTD SVG 20010904//EN"
 "http://www.w3.org/TR/2001/REC-SVG-20010904/DTD/svg10.dtd">
<svg version="1.0" xmlns="http://www.w3.org/2000/svg"
 width="360.000000pt" height="360.000000pt" viewBox="0 0 360.000000 360.000000"
 preserveAspectRatio="xMidYMid meet">

<g transform="translate(0.000000,360.000000) scale(0.100000,-0.100000)"
fill="#000000" stroke="none">
<path d="M2435 2464 c-275 -51 -566 -166 -773 -306 -139 -94 -146 -97 -226
-97 -140 -1 -385 -74 -503 -150 -84 -54 -113 -92 -113 -147 0 -61 47 -111 160
-169 131 -68 125 -62 105 -121 -19 -56 -14 -108 17 -193 20 -52 20 -54 2 -64
-51 -28 -117 -105 -151 -175 -30 -59 -38 -90 -41 -144 -6 -100 26 -138 128
-153 96 -13 286 59 355 136 l35 39 77 -26 c67 -22 90 -26 163 -22 47 3 91 7
99 9 9 3 33 -27 67 -81 125 -203 208 -230 329 -106 103 106 197 313 231 509
15 85 17 91 82 170 227 282 362 633 350 911 -4 103 -25 152 -75 176 -41 20
-222 22 -318 4z m279 -115 c10 -53 6 -201 -8 -264 -20 -91 -59 -207 -72 -212
-17 -6 -180 78 -250 130 -70 52 -114 102 -177 207 -32 52 -42 77 -34 82 22 12
201 61 272 73 38 7 113 14 166 14 l97 1 6 -31z m-588 -131 c72 -166 237 -312
457 -402 l38 -15 -40 -79 c-70 -140 -159 -261 -275 -377 -129 -129 -243 -208
-418 -293 -143 -69 -183 -82 -259 -82 -155 0 -406 223 -441 393 -11 52 -10 61
11 104 87 181 301 435 476 569 123 92 363 222 416 223 9 1 24 -16 35 -41z
m-662 -257 c4 -5 -30 -51 -75 -103 -70 -80 -163 -202 -188 -247 -7 -11 -32 -1
-119 44 -61 31 -123 70 -139 87 l-28 29 25 20 c88 69 256 135 410 162 106 19
108 19 114 8z m791 -873 c-31 -126 -158 -348 -207 -364 -26 -8 -39 5 -99 99
-28 45 -60 95 -71 110 -11 16 -18 30 -16 31 1 2 48 26 103 55 56 29 146 82
200 119 l100 68 3 -28 c2 -15 -4 -56 -13 -90z m-997 -30 l82 -82 -22 -23 c-36
-39 -156 -92 -228 -102 -36 -5 -69 -7 -73 -4 -10 6 1 66 25 131 13 34 39 72
73 107 29 30 55 55 57 55 3 0 41 -37 86 -82z"/>
<path d="M1950 1961 c-112 -37 -180 -125 -180 -233 0 -67 26 -124 75 -167 56
-49 100 -65 181 -64 61 0 80 4 125 30 92 52 143 153 125 247 -11 56 -65 126
-124 159 -56 31 -152 45 -202 28z m160 -81 c72 -37 113 -125 91 -193 -36 -108
-161 -158 -265 -107 -80 38 -120 145 -82 218 18 35 64 78 96 91 43 17 118 13
160 -9z"/>
</g>
</svg>
